<?xml version="1.0" encoding="UTF-8"?><svg xmlns="http://www.w3.org/2000/svg" xmlns:xlink="http://www.w3.org/1999/xlink" fill-opacity="1" color-rendering="auto" color-interpolation="auto" text-rendering="auto" stroke="black" stroke-linecap="square" width="1376" stroke-miterlimit="10" shape-rendering="auto" stroke-opacity="1" fill="black" stroke-dasharray="none" font-weight="normal" stroke-width="1" height="970" font-family="'Dialog'" font-style="normal" stroke-linejoin="miter" font-size="12px" stroke-dashoffset="0" image-rendering="auto">
  <!--Generated by ySVG 2.5-->
  <defs id="genericDefs"/>
  <g>
    <defs id="defs1">
      <linearGradient x1="-131.4261" gradientUnits="userSpaceOnUse" x2="33.5739" y1="-40" y2="15" id="linearGradient1" spreadMethod="reflect">
        <stop stop-opacity="1" stop-color="rgb(210,217,223)" offset="0%"/>
        <stop stop-opacity="1" stop-color="rgb(210,217,223)" offset="100%"/>
      </linearGradient>
      <linearGradient x1="113.5739" gradientUnits="userSpaceOnUse" x2="278.5739" y1="140" y2="195" id="linearGradient2" spreadMethod="reflect">
        <stop stop-opacity="1" stop-color="rgb(210,217,223)" offset="0%"/>
        <stop stop-opacity="1" stop-color="rgb(210,217,223)" offset="100%"/>
      </linearGradient>
      <linearGradient x1="-231.4261" gradientUnits="userSpaceOnUse" x2="-111.4261" y1="50" y2="105" id="linearGradient3" spreadMethod="reflect">
        <stop stop-opacity="1" stop-color="rgb(232,238,247)" offset="0%"/>
        <stop stop-opacity="1" stop-color="rgb(232,238,247)" offset="100%"/>
      </linearGradient>
      <linearGradient x1="13.5739" gradientUnits="userSpaceOnUse" x2="133.5739" y1="50" y2="105" id="linearGradient4" spreadMethod="reflect">
        <stop stop-opacity="1" stop-color="rgb(232,238,247)" offset="0%"/>
        <stop stop-opacity="1" stop-color="rgb(232,238,247)" offset="100%"/>
      </linearGradient>
      <linearGradient x1="603.5739" gradientUnits="userSpaceOnUse" x2="768.5739" y1="500" y2="555" id="linearGradient5" spreadMethod="reflect">
        <stop stop-opacity="1" stop-color="rgb(210,217,223)" offset="0%"/>
        <stop stop-opacity="1" stop-color="rgb(210,217,223)" offset="100%"/>
      </linearGradient>
      <linearGradient x1="358.5739" gradientUnits="userSpaceOnUse" x2="523.5739" y1="320" y2="375" id="linearGradient6" spreadMethod="reflect">
        <stop stop-opacity="1" stop-color="rgb(210,217,223)" offset="0%"/>
        <stop stop-opacity="1" stop-color="rgb(210,217,223)" offset="100%"/>
      </linearGradient>
      <linearGradient x1="868.5739" gradientUnits="userSpaceOnUse" x2="1033.574" y1="680" y2="735" id="linearGradient7" spreadMethod="reflect">
        <stop stop-opacity="1" stop-color="rgb(210,217,223)" offset="0%"/>
        <stop stop-opacity="1" stop-color="rgb(210,217,223)" offset="100%"/>
      </linearGradient>
      <linearGradient x1="13.5739" gradientUnits="userSpaceOnUse" x2="133.5739" y1="230" y2="285" id="linearGradient8" spreadMethod="reflect">
        <stop stop-opacity="1" stop-color="rgb(232,238,247)" offset="0%"/>
        <stop stop-opacity="1" stop-color="rgb(232,238,247)" offset="100%"/>
      </linearGradient>
      <linearGradient x1="258.5739" gradientUnits="userSpaceOnUse" x2="378.5739" y1="410" y2="465" id="linearGradient9" spreadMethod="reflect">
        <stop stop-opacity="1" stop-color="rgb(232,238,247)" offset="0%"/>
        <stop stop-opacity="1" stop-color="rgb(232,238,247)" offset="100%"/>
      </linearGradient>
      <linearGradient x1="503.5739" gradientUnits="userSpaceOnUse" x2="623.5739" y1="590" y2="645" id="linearGradient10" spreadMethod="reflect">
        <stop stop-opacity="1" stop-color="rgb(232,238,247)" offset="0%"/>
        <stop stop-opacity="1" stop-color="rgb(232,238,247)" offset="100%"/>
      </linearGradient>
      <linearGradient x1="503.5739" gradientUnits="userSpaceOnUse" x2="623.5739" y1="410" y2="465" id="linearGradient11" spreadMethod="reflect">
        <stop stop-opacity="1" stop-color="rgb(232,238,247)" offset="0%"/>
        <stop stop-opacity="1" stop-color="rgb(232,238,247)" offset="100%"/>
      </linearGradient>
      <linearGradient x1="258.5739" gradientUnits="userSpaceOnUse" x2="378.5739" y1="230" y2="285" id="linearGradient12" spreadMethod="reflect">
        <stop stop-opacity="1" stop-color="rgb(232,238,247)" offset="0%"/>
        <stop stop-opacity="1" stop-color="rgb(232,238,247)" offset="100%"/>
      </linearGradient>
      <linearGradient x1="1013.5739" gradientUnits="userSpaceOnUse" x2="1133.574" y1="770" y2="825" id="linearGradient13" spreadMethod="reflect">
        <stop stop-opacity="1" stop-color="rgb(232,238,247)" offset="0%"/>
        <stop stop-opacity="1" stop-color="rgb(232,238,247)" offset="100%"/>
      </linearGradient>
      <linearGradient x1="748.5739" gradientUnits="userSpaceOnUse" x2="868.5739" y1="590" y2="645" id="linearGradient14" spreadMethod="reflect">
        <stop stop-opacity="1" stop-color="rgb(232,238,247)" offset="0%"/>
        <stop stop-opacity="1" stop-color="rgb(232,238,247)" offset="100%"/>
      </linearGradient>
      <linearGradient x1="768.5739" gradientUnits="userSpaceOnUse" x2="888.5739" y1="770" y2="825" id="linearGradient15" spreadMethod="reflect">
        <stop stop-opacity="1" stop-color="rgb(232,238,247)" offset="0%"/>
        <stop stop-opacity="1" stop-color="rgb(232,238,247)" offset="100%"/>
      </linearGradient>
      <linearGradient x1="-131.4261" gradientUnits="userSpaceOnUse" x2="33.5739" y1="320" y2="375" id="linearGradient16" spreadMethod="reflect">
        <stop stop-opacity="1" stop-color="rgb(210,217,223)" offset="0%"/>
        <stop stop-opacity="1" stop-color="rgb(210,217,223)" offset="100%"/>
      </linearGradient>
      <linearGradient x1="13.5739" gradientUnits="userSpaceOnUse" x2="133.5739" y1="410" y2="465" id="linearGradient17" spreadMethod="reflect">
        <stop stop-opacity="1" stop-color="rgb(232,238,247)" offset="0%"/>
        <stop stop-opacity="1" stop-color="rgb(232,238,247)" offset="100%"/>
      </linearGradient>
      <linearGradient x1="-231.4261" gradientUnits="userSpaceOnUse" x2="-111.4261" y1="410" y2="465" id="linearGradient18" spreadMethod="reflect">
        <stop stop-opacity="1" stop-color="rgb(232,238,247)" offset="0%"/>
        <stop stop-opacity="1" stop-color="rgb(232,238,247)" offset="100%"/>
      </linearGradient>
      <clipPath clipPathUnits="userSpaceOnUse" id="clipPath1">
        <path d="M0 0 L1376 0 L1376 970 L0 970 L0 0 Z"/>
      </clipPath>
      <clipPath clipPathUnits="userSpaceOnUse" id="clipPath2">
        <path d="M-237 -45 L1139 -45 L1139 925 L-237 925 L-237 -45 Z"/>
      </clipPath>
    </defs>
    <g fill="white" text-rendering="geometricPrecision" shape-rendering="geometricPrecision" transform="translate(237,45)" stroke="white">
      <rect x="-237" width="1376" height="970" y="-45" clip-path="url(#clipPath2)" stroke="none"/>
    </g>
    <g fill="url(#linearGradient1)" text-rendering="geometricPrecision" shape-rendering="geometricPrecision" transform="matrix(1,0,0,1,237,45)" stroke="url(#linearGradient1)">
      <path d="M-131.4261 -40 L33.5739 -40 L33.5739 15 L-131.4261 15 Z" stroke="none" clip-path="url(#clipPath2)"/>
    </g>
    <g text-rendering="geometricPrecision" stroke-miterlimit="1.45" stroke-width="2" shape-rendering="geometricPrecision" transform="matrix(1,0,0,1,237,45)" stroke-linecap="butt">
      <path fill="none" d="M-131.4261 -40 L33.5739 -40 L33.5739 15 L-131.4261 15 Z" clip-path="url(#clipPath2)"/>
      <text x="-99.0706" font-size="22px" y="-3.8579" clip-path="url(#clipPath2)" font-family="sans-serif" stroke="none" stroke-width="1" xml:space="preserve">on(b1, b0)</text>
    </g>
    <g fill="url(#linearGradient2)" text-rendering="geometricPrecision" shape-rendering="geometricPrecision" transform="matrix(1,0,0,1,237,45)" stroke="url(#linearGradient2)">
      <path d="M113.5739 140 L278.5739 140 L278.5739 195 L113.5739 195 Z" stroke="none" clip-path="url(#clipPath2)"/>
    </g>
    <g text-rendering="geometricPrecision" stroke-miterlimit="1.45" stroke-width="2" shape-rendering="geometricPrecision" transform="matrix(1,0,0,1,237,45)" stroke-linecap="butt">
      <path fill="none" d="M113.5739 140 L278.5739 140 L278.5739 195 L113.5739 195 Z" clip-path="url(#clipPath2)"/>
      <text x="134.3225" font-size="22px" y="176.1421" clip-path="url(#clipPath2)" font-family="sans-serif" stroke="none" stroke-width="1" xml:space="preserve">move(b1,b0)</text>
    </g>
    <g fill="url(#linearGradient3)" text-rendering="geometricPrecision" shape-rendering="geometricPrecision" transform="matrix(1,0,0,1,237,45)" stroke="url(#linearGradient3)">
      <path d="M-171.4261 50 L-111.4261 77.5 L-171.4261 105 L-231.4261 77.5 Z" stroke="none" clip-path="url(#clipPath2)"/>
    </g>
    <g text-rendering="geometricPrecision" stroke-miterlimit="1.45" stroke-width="2" shape-rendering="geometricPrecision" transform="matrix(1,0,0,1,237,45)" stroke-linecap="butt">
      <path fill="none" d="M-171.4261 50 L-111.4261 77.5 L-171.4261 105 L-231.4261 77.5 Z" clip-path="url(#clipPath2)"/>
      <text x="-188.6575" font-size="20px" y="85.3564" clip-path="url(#clipPath2)" font-family="sans-serif" stroke="none" stroke-width="1" xml:space="preserve">true</text>
    </g>
    <g fill="url(#linearGradient4)" text-rendering="geometricPrecision" shape-rendering="geometricPrecision" transform="matrix(1,0,0,1,237,45)" stroke="url(#linearGradient4)">
      <path d="M73.5739 50 L133.5739 77.5 L73.5739 105 L13.5739 77.5 Z" stroke="none" clip-path="url(#clipPath2)"/>
    </g>
    <g text-rendering="geometricPrecision" stroke-miterlimit="1.45" stroke-width="2" shape-rendering="geometricPrecision" transform="matrix(1,0,0,1,237,45)" stroke-linecap="butt">
      <path fill="none" d="M73.5739 50 L133.5739 77.5 L73.5739 105 L13.5739 77.5 Z" clip-path="url(#clipPath2)"/>
      <text x="52.4509" font-size="20px" y="85.3564" clip-path="url(#clipPath2)" font-family="sans-serif" stroke="none" stroke-width="1" xml:space="preserve">false</text>
    </g>
    <g font-size="28px" stroke-linecap="butt" transform="matrix(1,0,0,1,237,45)" text-rendering="geometricPrecision" font-family="sans-serif" shape-rendering="geometricPrecision" stroke-miterlimit="1.45">
      <text x="-183.095" xml:space="preserve" y="190.999" clip-path="url(#clipPath2)" stroke="none">...</text>
    </g>
    <g fill="url(#linearGradient5)" text-rendering="geometricPrecision" shape-rendering="geometricPrecision" transform="matrix(1,0,0,1,237,45)" stroke="url(#linearGradient5)">
      <path d="M603.5739 500 L768.5739 500 L768.5739 555 L603.5739 555 Z" stroke="none" clip-path="url(#clipPath2)"/>
    </g>
    <g text-rendering="geometricPrecision" stroke-miterlimit="1.45" stroke-width="2" shape-rendering="geometricPrecision" transform="matrix(1,0,0,1,237,45)" stroke-linecap="butt">
      <path fill="none" d="M603.5739 500 L768.5739 500 L768.5739 555 L603.5739 555 Z" clip-path="url(#clipPath2)"/>
      <text x="609.6486" font-size="22px" y="536.1421" clip-path="url(#clipPath2)" font-family="sans-serif" stroke="none" stroke-width="1" xml:space="preserve">move(b2, table)</text>
    </g>
    <g fill="url(#linearGradient6)" text-rendering="geometricPrecision" shape-rendering="geometricPrecision" transform="matrix(1,0,0,1,237,45)" stroke="url(#linearGradient6)">
      <path d="M358.5739 320 L523.5739 320 L523.5739 375 L358.5739 375 Z" stroke="none" clip-path="url(#clipPath2)"/>
    </g>
    <g text-rendering="geometricPrecision" stroke-miterlimit="1.45" stroke-width="2" shape-rendering="geometricPrecision" transform="matrix(1,0,0,1,237,45)" stroke-linecap="butt">
      <path fill="none" d="M358.5739 320 L523.5739 320 L523.5739 375 L358.5739 375 Z" clip-path="url(#clipPath2)"/>
      <text x="390.9294" font-size="22px" y="356.1421" clip-path="url(#clipPath2)" font-family="sans-serif" stroke="none" stroke-width="1" xml:space="preserve">on(b3, b2)</text>
    </g>
    <g fill="url(#linearGradient7)" text-rendering="geometricPrecision" shape-rendering="geometricPrecision" transform="matrix(1,0,0,1,237,45)" stroke="url(#linearGradient7)">
      <path d="M868.5739 680 L1033.574 680 L1033.574 735 L868.5739 735 Z" stroke="none" clip-path="url(#clipPath2)"/>
    </g>
    <g text-rendering="geometricPrecision" stroke-miterlimit="1.45" stroke-width="2" shape-rendering="geometricPrecision" transform="matrix(1,0,0,1,237,45)" stroke-linecap="butt">
      <path fill="none" d="M868.5739 680 L1033.574 680 L1033.574 735 L868.5739 735 Z" clip-path="url(#clipPath2)"/>
      <text x="900.9294" font-size="22px" y="716.1421" clip-path="url(#clipPath2)" font-family="sans-serif" stroke="none" stroke-width="1" xml:space="preserve">on(b0, b2)</text>
    </g>
    <g font-size="22px" stroke-linecap="butt" transform="matrix(1,0,0,1,237,45)" text-rendering="geometricPrecision" font-family="sans-serif" shape-rendering="geometricPrecision" stroke-miterlimit="1.45">
      <text x="297.1647" xml:space="preserve" y="548.6421" clip-path="url(#clipPath2)" stroke="none">0.05</text>
    </g>
    <g font-size="22px" stroke-linecap="butt" transform="matrix(1,0,0,1,237,45)" text-rendering="geometricPrecision" font-family="sans-serif" shape-rendering="geometricPrecision" stroke-miterlimit="1.45">
      <text x="542.1647" xml:space="preserve" y="728.6421" clip-path="url(#clipPath2)" stroke="none">8.72</text>
    </g>
    <g fill="url(#linearGradient8)" text-rendering="geometricPrecision" shape-rendering="geometricPrecision" transform="matrix(1,0,0,1,237,45)" stroke="url(#linearGradient8)">
      <path d="M73.5739 230 L133.5739 257.5 L73.5739 285 L13.5739 257.5 Z" stroke="none" clip-path="url(#clipPath2)"/>
    </g>
    <g text-rendering="geometricPrecision" stroke-miterlimit="1.45" stroke-width="2" shape-rendering="geometricPrecision" transform="matrix(1,0,0,1,237,45)" stroke-linecap="butt">
      <path fill="none" d="M73.5739 230 L133.5739 257.5 L73.5739 285 L13.5739 257.5 Z" clip-path="url(#clipPath2)"/>
      <text x="56.3425" font-size="20px" y="265.3564" clip-path="url(#clipPath2)" font-family="sans-serif" stroke="none" stroke-width="1" xml:space="preserve">true</text>
    </g>
    <g fill="url(#linearGradient9)" text-rendering="geometricPrecision" shape-rendering="geometricPrecision" transform="matrix(1,0,0,1,237,45)" stroke="url(#linearGradient9)">
      <path d="M318.5739 410 L378.5739 437.5 L318.5739 465 L258.5739 437.5 Z" stroke="none" clip-path="url(#clipPath2)"/>
    </g>
    <g text-rendering="geometricPrecision" stroke-miterlimit="1.45" stroke-width="2" shape-rendering="geometricPrecision" transform="matrix(1,0,0,1,237,45)" stroke-linecap="butt">
      <path fill="none" d="M318.5739 410 L378.5739 437.5 L318.5739 465 L258.5739 437.5 Z" clip-path="url(#clipPath2)"/>
      <text x="301.3425" font-size="20px" y="445.3564" clip-path="url(#clipPath2)" font-family="sans-serif" stroke="none" stroke-width="1" xml:space="preserve">true</text>
    </g>
    <g fill="url(#linearGradient10)" text-rendering="geometricPrecision" shape-rendering="geometricPrecision" transform="matrix(1,0,0,1,237,45)" stroke="url(#linearGradient10)">
      <path d="M563.5739 590 L623.5739 617.5 L563.5739 645 L503.5739 617.5 Z" stroke="none" clip-path="url(#clipPath2)"/>
    </g>
    <g text-rendering="geometricPrecision" stroke-miterlimit="1.45" stroke-width="2" shape-rendering="geometricPrecision" transform="matrix(1,0,0,1,237,45)" stroke-linecap="butt">
      <path fill="none" d="M563.5739 590 L623.5739 617.5 L563.5739 645 L503.5739 617.5 Z" clip-path="url(#clipPath2)"/>
      <text x="546.3425" font-size="20px" y="625.3564" clip-path="url(#clipPath2)" font-family="sans-serif" stroke="none" stroke-width="1" xml:space="preserve">true</text>
    </g>
    <g fill="url(#linearGradient11)" text-rendering="geometricPrecision" shape-rendering="geometricPrecision" transform="matrix(1,0,0,1,237,45)" stroke="url(#linearGradient11)">
      <path d="M563.5739 410 L623.5739 437.5 L563.5739 465 L503.5739 437.5 Z" stroke="none" clip-path="url(#clipPath2)"/>
    </g>
    <g text-rendering="geometricPrecision" stroke-miterlimit="1.45" stroke-width="2" shape-rendering="geometricPrecision" transform="matrix(1,0,0,1,237,45)" stroke-linecap="butt">
      <path fill="none" d="M563.5739 410 L623.5739 437.5 L563.5739 465 L503.5739 437.5 Z" clip-path="url(#clipPath2)"/>
      <text x="542.4509" font-size="20px" y="445.3564" clip-path="url(#clipPath2)" font-family="sans-serif" stroke="none" stroke-width="1" xml:space="preserve">false</text>
    </g>
    <g fill="url(#linearGradient12)" text-rendering="geometricPrecision" shape-rendering="geometricPrecision" transform="matrix(1,0,0,1,237,45)" stroke="url(#linearGradient12)">
      <path d="M318.5739 230 L378.5739 257.5 L318.5739 285 L258.5739 257.5 Z" stroke="none" clip-path="url(#clipPath2)"/>
    </g>
    <g text-rendering="geometricPrecision" stroke-miterlimit="1.45" stroke-width="2" shape-rendering="geometricPrecision" transform="matrix(1,0,0,1,237,45)" stroke-linecap="butt">
      <path fill="none" d="M318.5739 230 L378.5739 257.5 L318.5739 285 L258.5739 257.5 Z" clip-path="url(#clipPath2)"/>
      <text x="297.4509" font-size="20px" y="265.3564" clip-path="url(#clipPath2)" font-family="sans-serif" stroke="none" stroke-width="1" xml:space="preserve">false</text>
    </g>
    <g fill="url(#linearGradient13)" text-rendering="geometricPrecision" shape-rendering="geometricPrecision" transform="matrix(1,0,0,1,237,45)" stroke="url(#linearGradient13)">
      <path d="M1073.574 770 L1133.574 797.5 L1073.574 825 L1013.5739 797.5 Z" stroke="none" clip-path="url(#clipPath2)"/>
    </g>
    <g text-rendering="geometricPrecision" stroke-miterlimit="1.45" stroke-width="2" shape-rendering="geometricPrecision" transform="matrix(1,0,0,1,237,45)" stroke-linecap="butt">
      <path fill="none" d="M1073.574 770 L1133.574 797.5 L1073.574 825 L1013.5739 797.5 Z" clip-path="url(#clipPath2)"/>
      <text x="1052.4509" font-size="20px" y="805.3564" clip-path="url(#clipPath2)" font-family="sans-serif" stroke="none" stroke-width="1" xml:space="preserve">false</text>
    </g>
    <g fill="url(#linearGradient14)" text-rendering="geometricPrecision" shape-rendering="geometricPrecision" transform="matrix(1,0,0,1,237,45)" stroke="url(#linearGradient14)">
      <path d="M808.5739 590 L868.5739 617.5 L808.5739 645 L748.5739 617.5 Z" stroke="none" clip-path="url(#clipPath2)"/>
    </g>
    <g text-rendering="geometricPrecision" stroke-miterlimit="1.45" stroke-width="2" shape-rendering="geometricPrecision" transform="matrix(1,0,0,1,237,45)" stroke-linecap="butt">
      <path fill="none" d="M808.5739 590 L868.5739 617.5 L808.5739 645 L748.5739 617.5 Z" clip-path="url(#clipPath2)"/>
      <text x="787.4509" font-size="20px" y="625.3564" clip-path="url(#clipPath2)" font-family="sans-serif" stroke="none" stroke-width="1" xml:space="preserve">false</text>
    </g>
    <g font-size="28px" stroke-linecap="butt" transform="matrix(1,0,0,1,237,45)" text-rendering="geometricPrecision" font-family="sans-serif" shape-rendering="geometricPrecision" stroke-miterlimit="1.45">
      <text x="1061.905" xml:space="preserve" y="910.999" clip-path="url(#clipPath2)" stroke="none">...</text>
    </g>
    <g font-size="22px" stroke-linecap="butt" transform="matrix(1,0,0,1,237,45)" text-rendering="geometricPrecision" font-family="sans-serif" shape-rendering="geometricPrecision" stroke-miterlimit="1.45">
      <text x="807.1647" xml:space="preserve" y="908.6421" clip-path="url(#clipPath2)" stroke="none">0.48</text>
    </g>
    <g fill="url(#linearGradient15)" text-rendering="geometricPrecision" shape-rendering="geometricPrecision" transform="matrix(1,0,0,1,237,45)" stroke="url(#linearGradient15)">
      <path d="M828.5739 770 L888.5739 797.5 L828.5739 825 L768.5739 797.5 Z" stroke="none" clip-path="url(#clipPath2)"/>
    </g>
    <g text-rendering="geometricPrecision" stroke-miterlimit="1.45" stroke-width="2" shape-rendering="geometricPrecision" transform="matrix(1,0,0,1,237,45)" stroke-linecap="butt">
      <path fill="none" d="M828.5739 770 L888.5739 797.5 L828.5739 825 L768.5739 797.5 Z" clip-path="url(#clipPath2)"/>
      <text x="811.3425" font-size="20px" y="805.3564" clip-path="url(#clipPath2)" font-family="sans-serif" stroke="none" stroke-width="1" xml:space="preserve">true</text>
    </g>
    <g fill="url(#linearGradient16)" text-rendering="geometricPrecision" shape-rendering="geometricPrecision" transform="matrix(1,0,0,1,237,45)" stroke="url(#linearGradient16)">
      <path d="M-131.4261 320 L33.5739 320 L33.5739 375 L-131.4261 375 Z" stroke="none" clip-path="url(#clipPath2)"/>
    </g>
    <g text-rendering="geometricPrecision" stroke-miterlimit="1.45" stroke-width="2" shape-rendering="geometricPrecision" transform="matrix(1,0,0,1,237,45)" stroke-linecap="butt">
      <path fill="none" d="M-131.4261 320 L33.5739 320 L33.5739 375 L-131.4261 375 Z" clip-path="url(#clipPath2)"/>
      <text x="-99.0706" font-size="22px" y="356.1421" clip-path="url(#clipPath2)" font-family="sans-serif" stroke="none" stroke-width="1" xml:space="preserve">on(b2, b1)</text>
    </g>
    <g fill="url(#linearGradient17)" text-rendering="geometricPrecision" shape-rendering="geometricPrecision" transform="matrix(1,0,0,1,237,45)" stroke="url(#linearGradient17)">
      <path d="M73.5739 410 L133.5739 437.5 L73.5739 465 L13.5739 437.5 Z" stroke="none" clip-path="url(#clipPath2)"/>
    </g>
    <g text-rendering="geometricPrecision" stroke-miterlimit="1.45" stroke-width="2" shape-rendering="geometricPrecision" transform="matrix(1,0,0,1,237,45)" stroke-linecap="butt">
      <path fill="none" d="M73.5739 410 L133.5739 437.5 L73.5739 465 L13.5739 437.5 Z" clip-path="url(#clipPath2)"/>
      <text x="52.4509" font-size="20px" y="445.3564" clip-path="url(#clipPath2)" font-family="sans-serif" stroke="none" stroke-width="1" xml:space="preserve">false</text>
    </g>
    <g font-size="28px" stroke-linecap="butt" transform="matrix(1,0,0,1,237,45)" text-rendering="geometricPrecision" font-family="sans-serif" shape-rendering="geometricPrecision" stroke-miterlimit="1.45">
      <text x="61.905" xml:space="preserve" y="550.999" clip-path="url(#clipPath2)" stroke="none">...</text>
    </g>
    <g font-size="22px" stroke-linecap="butt" transform="matrix(1,0,0,1,237,45)" text-rendering="geometricPrecision" font-family="sans-serif" shape-rendering="geometricPrecision" stroke-miterlimit="1.45">
      <text x="-192.8353" xml:space="preserve" y="548.6421" clip-path="url(#clipPath2)" stroke="none">1.61</text>
    </g>
    <g fill="url(#linearGradient18)" text-rendering="geometricPrecision" shape-rendering="geometricPrecision" transform="matrix(1,0,0,1,237,45)" stroke="url(#linearGradient18)">
      <path d="M-171.4261 410 L-111.4261 437.5 L-171.4261 465 L-231.4261 437.5 Z" stroke="none" clip-path="url(#clipPath2)"/>
    </g>
    <g text-rendering="geometricPrecision" stroke-miterlimit="1.45" stroke-width="2" shape-rendering="geometricPrecision" transform="matrix(1,0,0,1,237,45)" stroke-linecap="butt">
      <path fill="none" d="M-171.4261 410 L-111.4261 437.5 L-171.4261 465 L-231.4261 437.5 Z" clip-path="url(#clipPath2)"/>
      <text x="-188.6575" font-size="20px" y="445.3564" clip-path="url(#clipPath2)" font-family="sans-serif" stroke="none" stroke-width="1" xml:space="preserve">true</text>
    </g>
    <g text-rendering="geometricPrecision" stroke-miterlimit="1.45" stroke-width="2" shape-rendering="geometricPrecision" transform="matrix(1,0,0,1,237,45)" stroke-linecap="butt">
      <path fill="none" d="M-86.34 14.9878 L-148.3889 60.5747" clip-path="url(#clipPath2)"/>
    </g>
    <g text-rendering="geometricPrecision" stroke-miterlimit="1.45" stroke-width="2" shape-rendering="geometricPrecision" transform="matrix(1,0,0,1,237,45)" stroke-linecap="butt">
      <path fill="none" d="M-11.5121 14.9878 L50.5367 60.5747" clip-path="url(#clipPath2)"/>
      <path fill="none" d="M96.6324 94.4409 L151.409 134.685" clip-path="url(#clipPath2)"/>
      <path d="M158.662 140.0137 L151.113 127.4875 L150.5024 134.0189 L144.4521 136.5537 Z" clip-path="url(#clipPath2)" stroke="none"/>
      <path fill="none" d="M-171.4261 105.0018 L-171.4261 150.9688" clip-path="url(#clipPath2)"/>
      <path d="M-171.4261 159.9688 L-165.8011 146.4688 L-171.4261 149.8438 L-177.0511 146.4688 Z" clip-path="url(#clipPath2)" stroke="none"/>
      <path fill="none" d="M158.66 194.9878 L96.6111 240.5747" clip-path="url(#clipPath2)"/>
      <path fill="none" d="M403.66 374.9878 L341.6111 420.5747" clip-path="url(#clipPath2)"/>
      <path fill="none" d="M318.5739 465.0018 L318.5739 510.9688" clip-path="url(#clipPath2)"/>
      <path d="M318.5739 519.9688 L324.1989 506.4688 L318.5739 509.8438 L312.9489 506.4688 Z" clip-path="url(#clipPath2)" stroke="none"/>
      <path fill="none" d="M648.66 554.9878 L586.6111 600.5747" clip-path="url(#clipPath2)"/>
      <path fill="none" d="M563.5739 645.0018 L563.5739 690.9688" clip-path="url(#clipPath2)"/>
      <path d="M563.5739 699.9688 L569.1989 686.4688 L563.5739 689.8438 L557.9489 686.4688 Z" clip-path="url(#clipPath2)" stroke="none"/>
      <path fill="none" d="M478.4879 374.9878 L540.5367 420.5747" clip-path="url(#clipPath2)"/>
      <path fill="none" d="M586.6324 454.4409 L641.409 494.685" clip-path="url(#clipPath2)"/>
      <path d="M648.6619 500.0136 L641.1129 487.4875 L640.5024 494.0189 L634.4521 496.5537 Z" clip-path="url(#clipPath2)" stroke="none"/>
      <path fill="none" d="M233.4879 194.9878 L295.5367 240.5747" clip-path="url(#clipPath2)"/>
      <path fill="none" d="M341.6324 274.4409 L396.409 314.685" clip-path="url(#clipPath2)"/>
      <path d="M403.662 320.0137 L396.113 307.4875 L395.5024 314.0189 L389.4521 316.5537 Z" clip-path="url(#clipPath2)" stroke="none"/>
      <path fill="none" d="M988.4879 734.9878 L1050.5367 780.5747" clip-path="url(#clipPath2)"/>
      <path fill="none" d="M723.4879 554.9878 L785.5367 600.5747" clip-path="url(#clipPath2)"/>
      <path fill="none" d="M833.7967 633.4302 L899.915 675.1891" clip-path="url(#clipPath2)"/>
      <path d="M907.5245 679.9951 L899.114 668.0303 L898.9639 674.5884 L893.1066 677.5421 Z" clip-path="url(#clipPath2)" stroke="none"/>
      <path fill="none" d="M1073.574 825.0018 L1073.574 870.9688" clip-path="url(#clipPath2)"/>
      <path d="M1073.574 879.9688 L1079.199 866.4688 L1073.574 869.8438 L1067.949 866.4688 Z" clip-path="url(#clipPath2)" stroke="none"/>
      <path fill="none" d="M913.66 734.9878 L851.6111 780.5747" clip-path="url(#clipPath2)"/>
      <path fill="none" d="M828.5739 825.0018 L828.5739 870.9688" clip-path="url(#clipPath2)"/>
      <path d="M828.5739 879.9688 L834.1989 866.4688 L828.5739 869.8438 L822.9489 866.4688 Z" clip-path="url(#clipPath2)" stroke="none"/>
      <path fill="none" d="M50.5155 274.4409 L-4.2612 314.685" clip-path="url(#clipPath2)"/>
      <path d="M-11.5141 320.0137 L2.6957 316.5537 L-3.3546 314.0189 L-3.9651 307.4875 Z" clip-path="url(#clipPath2)" stroke="none"/>
      <path fill="none" d="M-11.5121 374.9878 L50.5367 420.5747" clip-path="url(#clipPath2)"/>
      <path fill="none" d="M73.5739 465.0018 L73.5739 510.9688" clip-path="url(#clipPath2)"/>
      <path d="M73.5739 519.9688 L79.1989 506.4688 L73.5739 509.8438 L67.9489 506.4688 Z" clip-path="url(#clipPath2)" stroke="none"/>
      <path fill="none" d="M-86.34 374.9878 L-148.3889 420.5747" clip-path="url(#clipPath2)"/>
      <path fill="none" d="M-171.4261 465.0107 L-171.4261 510.9711" clip-path="url(#clipPath2)"/>
      <path d="M-171.4261 519.9711 L-165.8011 506.4711 L-171.4261 509.8461 L-177.0511 506.4711 Z" clip-path="url(#clipPath2)" stroke="none"/>
    </g>
  </g>
</svg>
