<?xml version="1.0" encoding="UTF-8"?><svg xmlns="http://www.w3.org/2000/svg" xmlns:xlink="http://www.w3.org/1999/xlink" fill-opacity="1" color-rendering="auto" color-interpolation="auto" text-rendering="auto" stroke="black" stroke-linecap="square" width="997" stroke-miterlimit="10" shape-rendering="auto" stroke-opacity="1" fill="black" stroke-dasharray="none" font-weight="normal" stroke-width="1" height="894" font-family="'Dialog'" font-style="normal" stroke-linejoin="miter" font-size="12px" stroke-dashoffset="0" image-rendering="auto">
  <!--Generated by ySVG 2.5-->
  <defs id="genericDefs"/>
  <g>
    <defs id="defs1">
      <linearGradient x1="77.5" gradientUnits="userSpaceOnUse" x2="242.5" y1="21.8674" y2="76.8674" id="linearGradient1" spreadMethod="reflect">
        <stop stop-opacity="1" stop-color="rgb(210,217,223)" offset="0%"/>
        <stop stop-opacity="1" stop-color="rgb(210,217,223)" offset="100%"/>
      </linearGradient>
      <linearGradient x1="413.9834" gradientUnits="userSpaceOnUse" x2="578.9834" y1="274.25" y2="329.25" id="linearGradient2" spreadMethod="reflect">
        <stop stop-opacity="1" stop-color="rgb(210,217,223)" offset="0%"/>
        <stop stop-opacity="1" stop-color="rgb(210,217,223)" offset="100%"/>
      </linearGradient>
      <linearGradient x1="289.0254" gradientUnits="userSpaceOnUse" x2="400.0254" y1="159.1875" y2="203.1875" id="linearGradient3" spreadMethod="reflect">
        <stop stop-opacity="1" stop-color="rgb(232,238,247)" offset="0%"/>
        <stop stop-opacity="1" stop-color="rgb(232,238,247)" offset="100%"/>
      </linearGradient>
      <linearGradient x1="70" gradientUnits="userSpaceOnUse" x2="250" y1="-120.4527" y2="-60.4527" id="linearGradient4" spreadMethod="reflect">
        <stop stop-opacity="1" stop-color="rgb(232,238,247)" offset="0%"/>
        <stop stop-opacity="1" stop-color="rgb(232,238,247)" offset="100%"/>
      </linearGradient>
      <linearGradient x1="104.5" gradientUnits="userSpaceOnUse" x2="215.5" y1="159.1875" y2="203.1875" id="linearGradient5" spreadMethod="reflect">
        <stop stop-opacity="1" stop-color="rgb(232,238,247)" offset="0%"/>
        <stop stop-opacity="1" stop-color="rgb(232,238,247)" offset="100%"/>
      </linearGradient>
      <linearGradient x1="-80.0254" gradientUnits="userSpaceOnUse" x2="30.9746" y1="159.1875" y2="203.1875" id="linearGradient6" spreadMethod="reflect">
        <stop stop-opacity="1" stop-color="rgb(232,238,247)" offset="0%"/>
        <stop stop-opacity="1" stop-color="rgb(232,238,247)" offset="100%"/>
      </linearGradient>
      <linearGradient x1="375.7253" gradientUnits="userSpaceOnUse" x2="486.7253" y1="391.8125" y2="435.8125" id="linearGradient7" spreadMethod="reflect">
        <stop stop-opacity="1" stop-color="rgb(232,238,247)" offset="0%"/>
        <stop stop-opacity="1" stop-color="rgb(232,238,247)" offset="100%"/>
      </linearGradient>
      <linearGradient x1="173.6805" gradientUnits="userSpaceOnUse" x2="284.6805" y1="391.8125" y2="435.8125" id="linearGradient8" spreadMethod="reflect">
        <stop stop-opacity="1" stop-color="rgb(232,238,247)" offset="0%"/>
        <stop stop-opacity="1" stop-color="rgb(232,238,247)" offset="100%"/>
      </linearGradient>
      <linearGradient x1="42.6804" gradientUnits="userSpaceOnUse" x2="153.6805" y1="391.8125" y2="435.8125" id="linearGradient9" spreadMethod="reflect">
        <stop stop-opacity="1" stop-color="rgb(232,238,247)" offset="0%"/>
        <stop stop-opacity="1" stop-color="rgb(232,238,247)" offset="100%"/>
      </linearGradient>
      <linearGradient x1="516.7253" gradientUnits="userSpaceOnUse" x2="627.7253" y1="391.8125" y2="435.8125" id="linearGradient10" spreadMethod="reflect">
        <stop stop-opacity="1" stop-color="rgb(232,238,247)" offset="0%"/>
        <stop stop-opacity="1" stop-color="rgb(232,238,247)" offset="100%"/>
      </linearGradient>
      <linearGradient x1="77.5" gradientUnits="userSpaceOnUse" x2="242.5" y1="274.25" y2="329.25" id="linearGradient11" spreadMethod="reflect">
        <stop stop-opacity="1" stop-color="rgb(210,217,223)" offset="0%"/>
        <stop stop-opacity="1" stop-color="rgb(210,217,223)" offset="100%"/>
      </linearGradient>
      <linearGradient x1="146.6805" gradientUnits="userSpaceOnUse" x2="311.6805" y1="498.375" y2="553.375" id="linearGradient12" spreadMethod="reflect">
        <stop stop-opacity="1" stop-color="rgb(210,217,223)" offset="0%"/>
        <stop stop-opacity="1" stop-color="rgb(210,217,223)" offset="100%"/>
      </linearGradient>
      <linearGradient x1="320.1805" gradientUnits="userSpaceOnUse" x2="431.1805" y1="615.9375" y2="659.9375" id="linearGradient13" spreadMethod="reflect">
        <stop stop-opacity="1" stop-color="rgb(232,238,247)" offset="0%"/>
        <stop stop-opacity="1" stop-color="rgb(232,238,247)" offset="100%"/>
      </linearGradient>
      <linearGradient x1="173.6805" gradientUnits="userSpaceOnUse" x2="284.6805" y1="615.9375" y2="659.9375" id="linearGradient14" spreadMethod="reflect">
        <stop stop-opacity="1" stop-color="rgb(232,238,247)" offset="0%"/>
        <stop stop-opacity="1" stop-color="rgb(232,238,247)" offset="100%"/>
      </linearGradient>
      <linearGradient x1="27.1804" gradientUnits="userSpaceOnUse" x2="138.1805" y1="615.9375" y2="659.9375" id="linearGradient15" spreadMethod="reflect">
        <stop stop-opacity="1" stop-color="rgb(232,238,247)" offset="0%"/>
        <stop stop-opacity="1" stop-color="rgb(232,238,247)" offset="100%"/>
      </linearGradient>
      <linearGradient x1="-258.9834" gradientUnits="userSpaceOnUse" x2="-93.9834" y1="274.25" y2="329.25" id="linearGradient16" spreadMethod="reflect">
        <stop stop-opacity="1" stop-color="rgb(210,217,223)" offset="0%"/>
        <stop stop-opacity="1" stop-color="rgb(210,217,223)" offset="100%"/>
      </linearGradient>
      <linearGradient x1="-105.3121" gradientUnits="userSpaceOnUse" x2="5.6879" y1="391.8125" y2="435.8125" id="linearGradient17" spreadMethod="reflect">
        <stop stop-opacity="1" stop-color="rgb(232,238,247)" offset="0%"/>
        <stop stop-opacity="1" stop-color="rgb(232,238,247)" offset="100%"/>
      </linearGradient>
      <linearGradient x1="-231.9834" gradientUnits="userSpaceOnUse" x2="-120.9834" y1="391.8125" y2="435.8125" id="linearGradient18" spreadMethod="reflect">
        <stop stop-opacity="1" stop-color="rgb(232,238,247)" offset="0%"/>
        <stop stop-opacity="1" stop-color="rgb(232,238,247)" offset="100%"/>
      </linearGradient>
      <linearGradient x1="-358.6547" gradientUnits="userSpaceOnUse" x2="-247.6547" y1="391.8125" y2="435.8125" id="linearGradient19" spreadMethod="reflect">
        <stop stop-opacity="1" stop-color="rgb(232,238,247)" offset="0%"/>
        <stop stop-opacity="1" stop-color="rgb(232,238,247)" offset="100%"/>
      </linearGradient>
      <clipPath clipPathUnits="userSpaceOnUse" id="clipPath1">
        <path d="M0 0 L997 0 L997 894 L0 894 L0 0 Z"/>
      </clipPath>
      <clipPath clipPathUnits="userSpaceOnUse" id="clipPath2">
        <path d="M-364 -126 L633 -126 L633 768 L-364 768 L-364 -126 Z"/>
      </clipPath>
    </defs>
    <g fill="white" text-rendering="geometricPrecision" shape-rendering="geometricPrecision" transform="translate(364,126)" stroke="white">
      <rect x="-364" width="997" height="894" y="-126" clip-path="url(#clipPath2)" stroke="none"/>
    </g>
    <g fill="url(#linearGradient1)" text-rendering="geometricPrecision" shape-rendering="geometricPrecision" transform="matrix(1,0,0,1,364,126)" stroke="url(#linearGradient1)">
      <path d="M77.5 21.8674 L242.5 21.8674 L242.5 76.8674 L77.5 76.8674 Z" stroke="none" clip-path="url(#clipPath2)"/>
    </g>
    <g text-rendering="geometricPrecision" stroke-miterlimit="1.45" stroke-width="2" shape-rendering="geometricPrecision" transform="matrix(1,0,0,1,364,126)" stroke-linecap="butt">
      <path fill="none" d="M77.5 21.8674 L242.5 21.8674 L242.5 76.8674 L77.5 76.8674 Z" clip-path="url(#clipPath2)"/>
      <text x="83.9492" font-size="16px" y="55.6526" clip-path="url(#clipPath2)" font-family="sans-serif" stroke="none" stroke-width="1" xml:space="preserve">has_shape(A, shape)</text>
    </g>
    <g fill="url(#linearGradient2)" text-rendering="geometricPrecision" shape-rendering="geometricPrecision" transform="matrix(1,0,0,1,364,126)" stroke="url(#linearGradient2)">
      <path d="M413.9834 274.25 L578.9834 274.25 L578.9834 329.25 L413.9834 329.25 Z" stroke="none" clip-path="url(#clipPath2)"/>
    </g>
    <g text-rendering="geometricPrecision" stroke-miterlimit="1.45" stroke-width="2" shape-rendering="geometricPrecision" transform="matrix(1,0,0,1,364,126)" stroke-linecap="butt">
      <path fill="none" d="M413.9834 274.25 L578.9834 274.25 L578.9834 329.25 L413.9834 329.25 Z" clip-path="url(#clipPath2)"/>
      <text x="435.1318" font-size="16px" y="308.0352" clip-path="url(#clipPath2)" font-family="sans-serif" stroke="none" stroke-width="1" xml:space="preserve">has_size(D, size)</text>
    </g>
    <g fill="url(#linearGradient3)" text-rendering="geometricPrecision" shape-rendering="geometricPrecision" transform="matrix(1,0,0,1,364,126)" stroke="url(#linearGradient3)">
      <rect x="289.0254" y="159.1875" clip-path="url(#clipPath2)" width="111" rx="22" ry="22" height="44" stroke="none"/>
    </g>
    <g text-rendering="geometricPrecision" stroke-miterlimit="1.45" stroke-width="2" shape-rendering="geometricPrecision" transform="matrix(1,0,0,1,364,126)" stroke-linecap="butt">
      <rect x="289.0254" y="159.1875" clip-path="url(#clipPath2)" fill="none" width="111" rx="22" ry="22" height="44"/>
      <text x="320.9511" font-size="16px" y="187.4727" clip-path="url(#clipPath2)" font-family="sans-serif" stroke="none" stroke-width="1" xml:space="preserve">cuboid</text>
    </g>
    <g fill="url(#linearGradient4)" text-rendering="geometricPrecision" shape-rendering="geometricPrecision" transform="matrix(1,0,0,1,364,126)" stroke="url(#linearGradient4)">
      <path d="M85.3 -120.4527 L250 -120.4527 L234.7 -60.4527 L70 -60.4527 Z" stroke="none" clip-path="url(#clipPath2)"/>
    </g>
    <g text-rendering="geometricPrecision" stroke-miterlimit="1.45" stroke-width="2" shape-rendering="geometricPrecision" transform="matrix(1,0,0,1,364,126)" stroke-linecap="butt">
      <path fill="none" d="M85.3 -120.4527 L250 -120.4527 L234.7 -60.4527 L70 -60.4527 Z" clip-path="url(#clipPath2)"/>
      <text x="85.9883" font-size="16px" y="-84.1675" clip-path="url(#clipPath2)" font-family="sans-serif" stroke="none" stroke-width="1" xml:space="preserve">¬ occurs(move(A,D))</text>
    </g>
    <g fill="url(#linearGradient5)" text-rendering="geometricPrecision" shape-rendering="geometricPrecision" transform="matrix(1,0,0,1,364,126)" stroke="url(#linearGradient5)">
      <rect x="104.5" y="159.1875" clip-path="url(#clipPath2)" width="111" rx="22" ry="22" height="44" stroke="none"/>
    </g>
    <g text-rendering="geometricPrecision" stroke-miterlimit="1.45" stroke-width="2" shape-rendering="geometricPrecision" transform="matrix(1,0,0,1,364,126)" stroke-linecap="butt">
      <rect x="104.5" y="159.1875" clip-path="url(#clipPath2)" fill="none" width="111" rx="22" ry="22" height="44"/>
      <text x="140.4453" font-size="16px" y="187.4727" clip-path="url(#clipPath2)" font-family="sans-serif" stroke="none" stroke-width="1" xml:space="preserve">prism</text>
    </g>
    <g fill="url(#linearGradient6)" text-rendering="geometricPrecision" shape-rendering="geometricPrecision" transform="matrix(1,0,0,1,364,126)" stroke="url(#linearGradient6)">
      <rect x="-80.0254" y="159.1875" clip-path="url(#clipPath2)" width="111" rx="22" ry="22" height="44" stroke="none"/>
    </g>
    <g text-rendering="geometricPrecision" stroke-miterlimit="1.45" stroke-width="2" shape-rendering="geometricPrecision" transform="matrix(1,0,0,1,364,126)" stroke-linecap="butt">
      <rect x="-80.0254" y="159.1875" clip-path="url(#clipPath2)" fill="none" width="111" rx="22" ry="22" height="44"/>
      <text x="-41.873" font-size="16px" y="187.4727" clip-path="url(#clipPath2)" font-family="sans-serif" stroke="none" stroke-width="1" xml:space="preserve">cube</text>
    </g>
    <g fill="url(#linearGradient7)" text-rendering="geometricPrecision" shape-rendering="geometricPrecision" transform="matrix(1,0,0,1,364,126)" stroke="url(#linearGradient7)">
      <rect x="375.7253" y="391.8125" clip-path="url(#clipPath2)" width="111" rx="22" ry="22" height="44" stroke="none"/>
    </g>
    <g text-rendering="geometricPrecision" stroke-miterlimit="1.45" stroke-width="2" shape-rendering="geometricPrecision" transform="matrix(1,0,0,1,364,126)" stroke-linecap="butt">
      <rect x="375.7253" y="391.8125" clip-path="url(#clipPath2)" fill="none" width="111" rx="22" ry="22" height="44"/>
      <text x="412.5574" font-size="16px" y="420.0977" clip-path="url(#clipPath2)" font-family="sans-serif" stroke="none" stroke-width="1" xml:space="preserve">small</text>
    </g>
    <g fill="url(#linearGradient8)" text-rendering="geometricPrecision" shape-rendering="geometricPrecision" transform="matrix(1,0,0,1,364,126)" stroke="url(#linearGradient8)">
      <rect x="173.6804" y="391.8125" clip-path="url(#clipPath2)" width="111" rx="22" ry="22" height="44" stroke="none"/>
    </g>
    <g text-rendering="geometricPrecision" stroke-miterlimit="1.45" stroke-width="2" shape-rendering="geometricPrecision" transform="matrix(1,0,0,1,364,126)" stroke-linecap="butt">
      <rect x="173.6804" y="391.8125" clip-path="url(#clipPath2)" fill="none" width="111" rx="22" ry="22" height="44"/>
      <text x="214.0555" font-size="16px" y="420.0977" clip-path="url(#clipPath2)" font-family="sans-serif" stroke="none" stroke-width="1" xml:space="preserve">blue</text>
    </g>
    <g fill="url(#linearGradient9)" text-rendering="geometricPrecision" shape-rendering="geometricPrecision" transform="matrix(1,0,0,1,364,126)" stroke="url(#linearGradient9)">
      <rect x="42.6804" y="391.8125" clip-path="url(#clipPath2)" width="111" rx="22" ry="22" height="44" stroke="none"/>
    </g>
    <g text-rendering="geometricPrecision" stroke-miterlimit="1.45" stroke-width="2" shape-rendering="geometricPrecision" transform="matrix(1,0,0,1,364,126)" stroke-linecap="butt">
      <rect x="42.6804" y="391.8125" clip-path="url(#clipPath2)" fill="none" width="111" rx="22" ry="22" height="44"/>
      <text x="86.6179" font-size="16px" y="420.0977" clip-path="url(#clipPath2)" font-family="sans-serif" stroke="none" stroke-width="1" xml:space="preserve">red</text>
    </g>
    <g fill="url(#linearGradient10)" text-rendering="geometricPrecision" shape-rendering="geometricPrecision" transform="matrix(1,0,0,1,364,126)" stroke="url(#linearGradient10)">
      <rect x="516.7253" y="391.8125" clip-path="url(#clipPath2)" width="111" rx="22" ry="22" height="44" stroke="none"/>
    </g>
    <g text-rendering="geometricPrecision" stroke-miterlimit="1.45" stroke-width="2" shape-rendering="geometricPrecision" transform="matrix(1,0,0,1,364,126)" stroke-linecap="butt">
      <rect x="516.7253" y="391.8125" clip-path="url(#clipPath2)" fill="none" width="111" rx="22" ry="22" height="44"/>
      <text x="543.7722" font-size="16px" y="420.0977" clip-path="url(#clipPath2)" font-family="sans-serif" stroke="none" stroke-width="1" xml:space="preserve">medium</text>
    </g>
    <g fill="url(#linearGradient11)" text-rendering="geometricPrecision" shape-rendering="geometricPrecision" transform="matrix(1,0,0,1,364,126)" stroke="url(#linearGradient11)">
      <path d="M77.5 274.25 L242.5 274.25 L242.5 329.25 L77.5 329.25 Z" stroke="none" clip-path="url(#clipPath2)"/>
    </g>
    <g text-rendering="geometricPrecision" stroke-miterlimit="1.45" stroke-width="2" shape-rendering="geometricPrecision" transform="matrix(1,0,0,1,364,126)" stroke-linecap="butt">
      <path fill="none" d="M77.5 274.25 L242.5 274.25 L242.5 329.25 L77.5 329.25 Z" clip-path="url(#clipPath2)"/>
      <text x="92.8633" font-size="16px" y="308.0352" clip-path="url(#clipPath2)" font-family="sans-serif" stroke="none" stroke-width="1" xml:space="preserve">has_color(A, color)</text>
    </g>
    <g fill="url(#linearGradient12)" text-rendering="geometricPrecision" shape-rendering="geometricPrecision" transform="matrix(1,0,0,1,364,126)" stroke="url(#linearGradient12)">
      <path d="M146.6805 498.375 L311.6805 498.375 L311.6805 553.375 L146.6805 553.375 Z" stroke="none" clip-path="url(#clipPath2)"/>
    </g>
    <g text-rendering="geometricPrecision" stroke-miterlimit="1.45" stroke-width="2" shape-rendering="geometricPrecision" transform="matrix(1,0,0,1,364,126)" stroke-linecap="butt">
      <path fill="none" d="M146.6805 498.375 L311.6805 498.375 L311.6805 553.375 L146.6805 553.375 Z" clip-path="url(#clipPath2)"/>
      <text x="152.6883" font-size="16px" y="532.1602" clip-path="url(#clipPath2)" font-family="sans-serif" stroke="none" stroke-width="1" xml:space="preserve">has_shape(D, shape)</text>
    </g>
    <g fill="url(#linearGradient13)" text-rendering="geometricPrecision" shape-rendering="geometricPrecision" transform="matrix(1,0,0,1,364,126)" stroke="url(#linearGradient13)">
      <rect x="320.1804" y="615.9375" clip-path="url(#clipPath2)" width="111" rx="22" ry="22" height="44" stroke="none"/>
    </g>
    <g text-rendering="geometricPrecision" stroke-miterlimit="1.45" stroke-width="2" shape-rendering="geometricPrecision" transform="matrix(1,0,0,1,364,126)" stroke-linecap="butt">
      <rect x="320.1804" y="615.9375" clip-path="url(#clipPath2)" fill="none" width="111" rx="22" ry="22" height="44"/>
      <text x="352.1062" font-size="16px" y="644.2227" clip-path="url(#clipPath2)" font-family="sans-serif" stroke="none" stroke-width="1" xml:space="preserve">cuboid</text>
    </g>
    <g fill="url(#linearGradient14)" text-rendering="geometricPrecision" shape-rendering="geometricPrecision" transform="matrix(1,0,0,1,364,126)" stroke="url(#linearGradient14)">
      <rect x="173.6804" y="615.9375" clip-path="url(#clipPath2)" width="111" rx="22" ry="22" height="44" stroke="none"/>
    </g>
    <g text-rendering="geometricPrecision" stroke-miterlimit="1.45" stroke-width="2" shape-rendering="geometricPrecision" transform="matrix(1,0,0,1,364,126)" stroke-linecap="butt">
      <rect x="173.6804" y="615.9375" clip-path="url(#clipPath2)" fill="none" width="111" rx="22" ry="22" height="44"/>
      <text x="209.6258" font-size="16px" y="644.2227" clip-path="url(#clipPath2)" font-family="sans-serif" stroke="none" stroke-width="1" xml:space="preserve">prism</text>
    </g>
    <g fill="url(#linearGradient15)" text-rendering="geometricPrecision" shape-rendering="geometricPrecision" transform="matrix(1,0,0,1,364,126)" stroke="url(#linearGradient15)">
      <rect x="27.1804" y="615.9375" clip-path="url(#clipPath2)" width="111" rx="22" ry="22" height="44" stroke="none"/>
    </g>
    <g text-rendering="geometricPrecision" stroke-miterlimit="1.45" stroke-width="2" shape-rendering="geometricPrecision" transform="matrix(1,0,0,1,364,126)" stroke-linecap="butt">
      <rect x="27.1804" y="615.9375" clip-path="url(#clipPath2)" fill="none" width="111" rx="22" ry="22" height="44"/>
      <text x="65.3328" font-size="16px" y="644.2227" clip-path="url(#clipPath2)" font-family="sans-serif" stroke="none" stroke-width="1" xml:space="preserve">cube</text>
    </g>
    <g font-size="24px" stroke-linecap="butt" transform="matrix(1,0,0,1,364,126)" text-rendering="geometricPrecision" font-family="sans-serif" shape-rendering="geometricPrecision" stroke-miterlimit="1.45">
      <text x="88.1785" xml:space="preserve" y="527.8027" clip-path="url(#clipPath2)" stroke="none">...</text>
    </g>
    <g font-size="24px" stroke-linecap="butt" transform="matrix(1,0,0,1,364,126)" text-rendering="geometricPrecision" font-family="sans-serif" shape-rendering="geometricPrecision" stroke-miterlimit="1.45">
      <text x="72.6785" xml:space="preserve" y="751.9277" clip-path="url(#clipPath2)" stroke="none">...</text>
    </g>
    <g font-size="18px" stroke-linecap="butt" transform="matrix(1,0,0,1,364,126)" text-rendering="geometricPrecision" font-family="sans-serif" shape-rendering="geometricPrecision" stroke-miterlimit="1.45">
      <text x="206.6585" xml:space="preserve" y="749.5708" clip-path="url(#clipPath2)" stroke="none">21.55</text>
    </g>
    <g font-size="18px" stroke-linecap="butt" transform="matrix(1,0,0,1,364,126)" text-rendering="geometricPrecision" font-family="sans-serif" shape-rendering="geometricPrecision" stroke-miterlimit="1.45">
      <text x="358.1638" xml:space="preserve" y="749.5708" clip-path="url(#clipPath2)" stroke="none">4.30</text>
    </g>
    <g font-size="24px" stroke-linecap="butt" transform="matrix(1,0,0,1,364,126)" text-rendering="geometricPrecision" font-family="sans-serif" shape-rendering="geometricPrecision" stroke-miterlimit="1.45">
      <text x="421.2234" xml:space="preserve" y="527.8027" clip-path="url(#clipPath2)" stroke="none">...</text>
    </g>
    <g font-size="18px" stroke-linecap="butt" transform="matrix(1,0,0,1,364,126)" text-rendering="geometricPrecision" font-family="sans-serif" shape-rendering="geometricPrecision" stroke-miterlimit="1.45">
      <text x="549.7034" xml:space="preserve" y="525.4458" clip-path="url(#clipPath2)" stroke="none">36.45</text>
    </g>
    <g fill="url(#linearGradient16)" text-rendering="geometricPrecision" shape-rendering="geometricPrecision" transform="matrix(1,0,0,1,364,126)" stroke="url(#linearGradient16)">
      <path d="M-258.9834 274.25 L-93.9834 274.25 L-93.9834 329.25 L-258.9834 329.25 Z" stroke="none" clip-path="url(#clipPath2)"/>
    </g>
    <g text-rendering="geometricPrecision" stroke-miterlimit="1.45" stroke-width="2" shape-rendering="geometricPrecision" transform="matrix(1,0,0,1,364,126)" stroke-linecap="butt">
      <path fill="none" d="M-258.9834 274.25 L-93.9834 274.25 L-93.9834 329.25 L-258.9834 329.25 Z" clip-path="url(#clipPath2)"/>
      <text x="-252.9756" font-size="16px" y="308.0352" clip-path="url(#clipPath2)" font-family="sans-serif" stroke="none" stroke-width="1" xml:space="preserve">has_shape(D, shape)</text>
    </g>
    <g fill="url(#linearGradient17)" text-rendering="geometricPrecision" shape-rendering="geometricPrecision" transform="matrix(1,0,0,1,364,126)" stroke="url(#linearGradient17)">
      <rect x="-105.3121" y="391.8125" clip-path="url(#clipPath2)" width="111" rx="22" ry="22" height="44" stroke="none"/>
    </g>
    <g text-rendering="geometricPrecision" stroke-miterlimit="1.45" stroke-width="2" shape-rendering="geometricPrecision" transform="matrix(1,0,0,1,364,126)" stroke-linecap="butt">
      <rect x="-105.3121" y="391.8125" clip-path="url(#clipPath2)" fill="none" width="111" rx="22" ry="22" height="44"/>
      <text x="-73.3863" font-size="16px" y="420.0977" clip-path="url(#clipPath2)" font-family="sans-serif" stroke="none" stroke-width="1" xml:space="preserve">cuboid</text>
    </g>
    <g fill="url(#linearGradient18)" text-rendering="geometricPrecision" shape-rendering="geometricPrecision" transform="matrix(1,0,0,1,364,126)" stroke="url(#linearGradient18)">
      <rect x="-231.9834" y="391.8125" clip-path="url(#clipPath2)" width="111" rx="22" ry="22" height="44" stroke="none"/>
    </g>
    <g text-rendering="geometricPrecision" stroke-miterlimit="1.45" stroke-width="2" shape-rendering="geometricPrecision" transform="matrix(1,0,0,1,364,126)" stroke-linecap="butt">
      <rect x="-231.9834" y="391.8125" clip-path="url(#clipPath2)" fill="none" width="111" rx="22" ry="22" height="44"/>
      <text x="-196.0381" font-size="16px" y="420.0977" clip-path="url(#clipPath2)" font-family="sans-serif" stroke="none" stroke-width="1" xml:space="preserve">prism</text>
    </g>
    <g fill="url(#linearGradient19)" text-rendering="geometricPrecision" shape-rendering="geometricPrecision" transform="matrix(1,0,0,1,364,126)" stroke="url(#linearGradient19)">
      <rect x="-358.6547" y="391.8125" clip-path="url(#clipPath2)" width="111" rx="22" ry="22" height="44" stroke="none"/>
    </g>
    <g text-rendering="geometricPrecision" stroke-miterlimit="1.45" stroke-width="2" shape-rendering="geometricPrecision" transform="matrix(1,0,0,1,364,126)" stroke-linecap="butt">
      <rect x="-358.6547" y="391.8125" clip-path="url(#clipPath2)" fill="none" width="111" rx="22" ry="22" height="44"/>
      <text x="-320.5023" font-size="16px" y="420.0977" clip-path="url(#clipPath2)" font-family="sans-serif" stroke="none" stroke-width="1" xml:space="preserve">cube</text>
    </g>
    <g font-size="18px" stroke-linecap="butt" transform="matrix(1,0,0,1,364,126)" text-rendering="geometricPrecision" font-family="sans-serif" shape-rendering="geometricPrecision" stroke-miterlimit="1.45">
      <text x="-320.6713" xml:space="preserve" y="525.4458" clip-path="url(#clipPath2)" stroke="none">0.08</text>
    </g>
    <g font-size="18px" stroke-linecap="butt" transform="matrix(1,0,0,1,364,126)" text-rendering="geometricPrecision" font-family="sans-serif" shape-rendering="geometricPrecision" stroke-miterlimit="1.45">
      <text x="-199.0054" xml:space="preserve" y="525.4458" clip-path="url(#clipPath2)" stroke="none">20.39</text>
    </g>
    <g font-size="24px" stroke-linecap="butt" transform="matrix(1,0,0,1,364,126)" text-rendering="geometricPrecision" font-family="sans-serif" shape-rendering="geometricPrecision" stroke-miterlimit="1.45">
      <text x="-59.814" xml:space="preserve" y="527.8027" clip-path="url(#clipPath2)" stroke="none">...</text>
    </g>
    <g text-rendering="geometricPrecision" stroke-miterlimit="1.45" stroke-width="2" shape-rendering="geometricPrecision" transform="matrix(1,0,0,1,364,126)" stroke-linecap="butt">
      <path fill="none" d="M198.4953 76.8675 L313.7578 159.208" clip-path="url(#clipPath2)"/>
    </g>
    <g text-rendering="geometricPrecision" stroke-miterlimit="1.45" stroke-width="2" shape-rendering="geometricPrecision" transform="matrix(1,0,0,1,364,126)" stroke-linecap="butt">
      <path fill="none" d="M372.2384 203.1749 L454.762 268.6485" clip-path="url(#clipPath2)"/>
      <path d="M461.8125 274.2423 L454.7328 261.4451 L453.8807 267.9493 L447.7406 270.2582 Z" clip-path="url(#clipPath2)" stroke="none"/>
      <path fill="none" d="M160 -60.4473 L160 12.8869" clip-path="url(#clipPath2)"/>
      <path d="M160 21.8869 L165.625 8.3869 L160 11.7619 L154.375 8.3869 Z" clip-path="url(#clipPath2)" stroke="none"/>
      <path fill="none" d="M160 76.8836 L160 159.2113" clip-path="url(#clipPath2)"/>
      <path fill="none" d="M121.5047 76.8675 L6.2422 159.208" clip-path="url(#clipPath2)"/>
      <path fill="none" d="M480.4716 329.2458 L444.0419 391.8037" clip-path="url(#clipPath2)"/>
      <path fill="none" d="M515.0675 329.2458 L557.3498 391.8037" clip-path="url(#clipPath2)"/>
      <path fill="none" d="M160 203.1749 L160 265.2664" clip-path="url(#clipPath2)"/>
      <path d="M160 274.2664 L165.625 260.7664 L160 264.1414 L154.375 260.7664 Z" clip-path="url(#clipPath2)" stroke="none"/>
      <path fill="none" d="M144.8319 329.2458 L110.3217 391.8037" clip-path="url(#clipPath2)"/>
      <path fill="none" d="M176.9742 329.2458 L215.5936 391.8037" clip-path="url(#clipPath2)"/>
      <path fill="none" d="M229.1805 435.8365 L229.1805 489.3974" clip-path="url(#clipPath2)"/>
      <path d="M229.1805 498.3974 L234.8055 484.8974 L229.1805 488.2724 L223.5555 484.8974 Z" clip-path="url(#clipPath2)" stroke="none"/>
      <path fill="none" d="M265.1259 553.3708 L346.9352 615.9493" clip-path="url(#clipPath2)"/>
      <path fill="none" d="M229.1805 553.3708 L229.1805 615.9287" clip-path="url(#clipPath2)"/>
      <path fill="none" d="M193.235 553.3708 L111.4257 615.9493" clip-path="url(#clipPath2)"/>
      <path fill="none" d="M98.1804 435.7921 L98.1804 489.4148" clip-path="url(#clipPath2)"/>
      <path d="M98.1804 498.4148 L103.8054 484.9148 L98.1804 488.2898 L92.5554 484.9148 Z" clip-path="url(#clipPath2)" stroke="none"/>
      <path fill="none" d="M82.6804 659.9171 L82.6804 713.5398" clip-path="url(#clipPath2)"/>
      <path d="M82.6804 722.5398 L88.3054 709.0398 L82.6804 712.4148 L77.0554 709.0398 Z" clip-path="url(#clipPath2)" stroke="none"/>
      <path fill="none" d="M229.1805 659.9171 L229.1805 713.5398" clip-path="url(#clipPath2)"/>
      <path d="M229.1805 722.5398 L234.8055 709.0398 L229.1805 712.4148 L223.5555 709.0398 Z" clip-path="url(#clipPath2)" stroke="none"/>
      <path fill="none" d="M375.6805 659.9171 L375.6805 713.5398" clip-path="url(#clipPath2)"/>
      <path d="M375.6805 722.5398 L381.3055 709.0398 L375.6805 712.4148 L370.0555 709.0398 Z" clip-path="url(#clipPath2)" stroke="none"/>
      <path fill="none" d="M431.2253 435.7921 L431.2253 489.4148" clip-path="url(#clipPath2)"/>
      <path d="M431.2253 498.4148 L436.8503 484.9148 L431.2253 488.2898 L425.6003 484.9148 Z" clip-path="url(#clipPath2)" stroke="none"/>
      <path fill="none" d="M572.2253 435.7921 L572.2253 489.4148" clip-path="url(#clipPath2)"/>
      <path d="M572.2253 498.4148 L577.8503 484.9148 L572.2253 488.2898 L566.6003 484.9148 Z" clip-path="url(#clipPath2)" stroke="none"/>
      <path fill="none" d="M-57.3305 203.208 L-155.7216 269.2531" clip-path="url(#clipPath2)"/>
      <path d="M-163.1942 274.2692 L-148.8503 271.4155 L-154.7875 268.6262 L-155.1203 262.0748 Z" clip-path="url(#clipPath2)" stroke="none"/>
      <path fill="none" d="M-145.4032 329.2458 L-74.6667 391.8243" clip-path="url(#clipPath2)"/>
      <path fill="none" d="M-176.4834 329.2458 L-176.4834 391.8037" clip-path="url(#clipPath2)"/>
      <path fill="none" d="M-207.5636 329.2458 L-278.3001 391.8243" clip-path="url(#clipPath2)"/>
      <path fill="none" d="M-303.1547 435.7921 L-303.1547 489.4148" clip-path="url(#clipPath2)"/>
      <path d="M-303.1547 498.4148 L-297.5297 484.9148 L-303.1547 488.2898 L-308.7797 484.9148 Z" clip-path="url(#clipPath2)" stroke="none"/>
      <path fill="none" d="M-176.4834 435.7921 L-176.4834 489.4148" clip-path="url(#clipPath2)"/>
      <path d="M-176.4834 498.4148 L-170.8584 484.9148 L-176.4834 488.2898 L-182.1084 484.9148 Z" clip-path="url(#clipPath2)" stroke="none"/>
      <path fill="none" d="M-49.8121 435.7921 L-49.8121 489.4148" clip-path="url(#clipPath2)"/>
      <path d="M-49.8121 498.4148 L-44.1871 484.9148 L-49.8121 488.2898 L-55.4371 484.9148 Z" clip-path="url(#clipPath2)" stroke="none"/>
    </g>
  </g>
</svg>
