<?xml version="1.0" encoding="UTF-8"?><svg xmlns="http://www.w3.org/2000/svg" xmlns:xlink="http://www.w3.org/1999/xlink" fill-opacity="1" color-rendering="auto" color-interpolation="auto" text-rendering="auto" stroke="black" stroke-linecap="square" width="339" stroke-miterlimit="10" shape-rendering="auto" stroke-opacity="1" fill="black" stroke-dasharray="none" font-weight="normal" stroke-width="1" height="291" font-family="'Dialog'" font-style="normal" stroke-linejoin="miter" font-size="12px" stroke-dashoffset="0" image-rendering="auto">
  <!--Generated by ySVG 2.5-->
  <defs id="genericDefs"/>
  <g>
    <defs id="defs1">
      <clipPath clipPathUnits="userSpaceOnUse" id="clipPath1">
        <path d="M0 0 L339 0 L339 291 L0 291 L0 0 Z"/>
      </clipPath>
      <clipPath clipPathUnits="userSpaceOnUse" id="clipPath2">
        <path d="M205 9 L544 9 L544 300 L205 300 L205 9 Z"/>
      </clipPath>
    </defs>
    <g fill="white" text-rendering="geometricPrecision" shape-rendering="geometricPrecision" transform="translate(-205,-9)" stroke="white">
      <rect x="205" width="339" height="291" y="9" clip-path="url(#clipPath2)" stroke="none"/>
    </g>
    <g fill="rgb(223,241,238)" text-rendering="geometricPrecision" shape-rendering="geometricPrecision" transform="matrix(1,0,0,1,-205,-9)" stroke="rgb(223,241,238)">
      <rect x="295.691" width="157.4675" height="130" y="28.1463" clip-path="url(#clipPath2)" stroke="none"/>
    </g>
    <g font-size="15px" stroke-linecap="butt" transform="matrix(1,0,0,1,-205,-9)" text-rendering="geometricPrecision" font-family="sans-serif" shape-rendering="geometricPrecision" stroke-miterlimit="1.45">
      <text x="353.1663" xml:space="preserve" y="120.2269" clip-path="url(#clipPath2)" stroke="none">room1</text>
      <rect fill="none" x="295.691" width="157.4675" height="130" y="28.1463" clip-path="url(#clipPath2)"/>
    </g>
    <g fill="rgb(223,241,238)" text-rendering="geometricPrecision" shape-rendering="geometricPrecision" transform="matrix(1,0,0,1,-205,-9)" stroke="rgb(223,241,238)">
      <rect x="295.691" width="157.4675" height="130" y="164.3663" clip-path="url(#clipPath2)" stroke="none"/>
    </g>
    <g font-size="15px" stroke-linecap="butt" transform="matrix(1,0,0,1,-205,-9)" text-rendering="geometricPrecision" font-family="sans-serif" shape-rendering="geometricPrecision" stroke-miterlimit="1.45">
      <text x="353.1663" xml:space="preserve" y="256.4469" clip-path="url(#clipPath2)" stroke="none">room2</text>
      <rect fill="none" x="295.691" width="157.4675" height="130" y="164.3663" clip-path="url(#clipPath2)"/>
    </g>
    <g fill="rgb(241,239,160)" text-rendering="geometricPrecision" shape-rendering="geometricPrecision" transform="matrix(1,0,0,1,-205,-9)" stroke="rgb(241,239,160)">
      <circle r="15" clip-path="url(#clipPath2)" cx="316.6912" cy="49.5966" stroke="none"/>
    </g>
    <g font-size="14px" stroke-linecap="butt" transform="matrix(1,0,0,1,-205,-9)" text-rendering="geometricPrecision" font-family="sans-serif" shape-rendering="geometricPrecision" stroke-miterlimit="1.45">
      <text x="308.9051" xml:space="preserve" y="55.0961" clip-path="url(#clipPath2)" stroke="none">p1</text>
      <circle fill="none" r="15" clip-path="url(#clipPath2)" cx="316.6912" cy="49.5966"/>
    </g>
    <g fill="silver" text-rendering="geometricPrecision" shape-rendering="geometricPrecision" transform="matrix(1,0,0,1,-205,-9)" stroke="silver">
      <path d="M415.8322 43.3834 L424.619 34.5966 L437.0455 34.5966 L445.8322 43.3834 L445.8322 55.8098 L437.0455 64.5966 L424.619 64.5966 L415.8322 55.8098 Z" fill-rule="evenodd" clip-path="url(#clipPath2)" stroke="none"/>
    </g>
    <g font-size="14px" stroke-linecap="butt" transform="matrix(1,0,0,1,-205,-9)" text-rendering="geometricPrecision" font-family="sans-serif" shape-rendering="geometricPrecision" stroke-miterlimit="1.45">
      <text x="424.608" xml:space="preserve" y="55.0961" clip-path="url(#clipPath2)" stroke="none">r1</text>
      <path fill="none" d="M415.8322 43.3834 L424.619 34.5966 L437.0455 34.5966 L445.8322 43.3834 L445.8322 55.8098 L437.0455 64.5966 L424.619 64.5966 L415.8322 55.8098 Z" fill-rule="evenodd" clip-path="url(#clipPath2)"/>
    </g>
    <g fill="rgb(241,239,160)" text-rendering="geometricPrecision" shape-rendering="geometricPrecision" transform="matrix(1,0,0,1,-205,-9)" stroke="rgb(241,239,160)">
      <circle r="15" clip-path="url(#clipPath2)" cx="316.5009" cy="185.0161" stroke="none"/>
    </g>
    <g font-size="14px" stroke-linecap="butt" transform="matrix(1,0,0,1,-205,-9)" text-rendering="geometricPrecision" font-family="sans-serif" shape-rendering="geometricPrecision" stroke-miterlimit="1.45">
      <text x="308.7148" xml:space="preserve" y="190.5156" clip-path="url(#clipPath2)" stroke="none">p2</text>
      <circle fill="none" r="15" clip-path="url(#clipPath2)" cx="316.5009" cy="185.0161"/>
    </g>
    <g fill="white" text-rendering="geometricPrecision" shape-rendering="geometricPrecision" transform="matrix(1,0,0,1,-205,-9)" stroke="white">
      <rect x="483.1586" width="55" height="19.6" y="14.9966" clip-path="url(#clipPath2)" stroke="none"/>
    </g>
    <g font-size="9px" stroke-linecap="butt" transform="matrix(1,0,0,1,-205,-9)" text-rendering="geometricPrecision" font-family="sans-serif" shape-rendering="geometricPrecision" stroke-miterlimit="1.45">
      <text x="494.902" xml:space="preserve" y="28.332" clip-path="url(#clipPath2)" stroke="none">2 drinks</text>
      <rect fill="none" x="483.1586" width="55" height="19.6" y="14.9966" clip-path="url(#clipPath2)"/>
    </g>
    <g fill="white" text-rendering="geometricPrecision" shape-rendering="geometricPrecision" transform="matrix(1,0,0,1,-205,-9)" stroke="white">
      <rect x="210.691" width="55" height="19.6" y="154.8961" clip-path="url(#clipPath2)" stroke="none"/>
    </g>
    <g font-size="9px" stroke-linecap="butt" transform="matrix(1,0,0,1,-205,-9)" text-rendering="geometricPrecision" font-family="sans-serif" shape-rendering="geometricPrecision" stroke-miterlimit="1.45">
      <text x="222.4344" xml:space="preserve" y="168.2315" clip-path="url(#clipPath2)" stroke="none">0 drinks</text>
      <rect fill="none" x="210.691" width="55" height="19.6" y="154.8961" clip-path="url(#clipPath2)"/>
    </g>
    <g fill="white" text-rendering="geometricPrecision" shape-rendering="geometricPrecision" transform="matrix(1,0,0,1,-205,-9)" stroke="white">
      <rect x="210.691" width="55" height="19.6" y="14.9966" clip-path="url(#clipPath2)" stroke="none"/>
    </g>
    <g font-size="9px" stroke-linecap="butt" transform="matrix(1,0,0,1,-205,-9)" text-rendering="geometricPrecision" font-family="sans-serif" shape-rendering="geometricPrecision" stroke-miterlimit="1.45">
      <text x="222.4344" xml:space="preserve" y="28.332" clip-path="url(#clipPath2)" stroke="none">0 drinks</text>
      <rect fill="none" x="210.691" width="55" height="19.6" y="14.9966" clip-path="url(#clipPath2)"/>
    </g>
    <g fill="white" text-rendering="geometricPrecision" shape-rendering="geometricPrecision" transform="matrix(1,0,0,1,-205,-9)" stroke="white">
      <path d="M346.9253 135.0908 L352.425 127.5908 L396.425 127.5908 L401.9248 135.0908 L396.425 142.5908 L352.425 142.5908 Z" fill-rule="evenodd" clip-path="url(#clipPath2)" stroke="none"/>
    </g>
    <g font-size="9px" stroke-linecap="butt" transform="matrix(1,0,0,1,-205,-9)" text-rendering="geometricPrecision" font-family="sans-serif" shape-rendering="geometricPrecision" stroke-miterlimit="1.45">
      <text x="355.1658" xml:space="preserve" y="138.6262" clip-path="url(#clipPath2)" stroke="none">workshop</text>
    </g>
    <g stroke-linecap="butt" transform="matrix(1,0,0,1,-205,-9)" fill="silver" text-rendering="geometricPrecision" shape-rendering="geometricPrecision" stroke="silver" stroke-miterlimit="1.45">
      <path fill="none" d="M346.9253 135.0908 L352.425 127.5908 L396.425 127.5908 L401.9248 135.0908 L396.425 142.5908 L352.425 142.5908 Z" fill-rule="evenodd" clip-path="url(#clipPath2)"/>
    </g>
    <g fill="white" text-rendering="geometricPrecision" shape-rendering="geometricPrecision" transform="matrix(1,0,0,1,-205,-9)" stroke="white">
      <path d="M346.9248 272.2411 L352.4248 264.7411 L396.4249 264.7411 L401.9249 272.2411 L396.4249 279.7412 L352.4248 279.7412 Z" fill-rule="evenodd" clip-path="url(#clipPath2)" stroke="none"/>
    </g>
    <g font-size="9px" stroke-linecap="butt" transform="matrix(1,0,0,1,-205,-9)" text-rendering="geometricPrecision" font-family="sans-serif" shape-rendering="geometricPrecision" stroke-miterlimit="1.45">
      <text x="363.6692" xml:space="preserve" y="275.7764" clip-path="url(#clipPath2)" stroke="none">office</text>
    </g>
    <g stroke-linecap="butt" transform="matrix(1,0,0,1,-205,-9)" fill="silver" text-rendering="geometricPrecision" shape-rendering="geometricPrecision" stroke="silver" stroke-miterlimit="1.45">
      <path fill="none" d="M346.9248 272.2411 L352.4248 264.7411 L396.4249 264.7411 L401.9249 272.2411 L396.4249 279.7412 L352.4248 279.7412 Z" fill-rule="evenodd" clip-path="url(#clipPath2)"/>
    </g>
    <g fill="gray" text-rendering="geometricPrecision" shape-rendering="geometricPrecision" transform="matrix(1,0,0,1,-205,-9)" stroke="gray">
      <rect x="359.4248" y="158.1463" clip-path="url(#clipPath2)" width="30" rx="4" ry="4" height="6.22" stroke="none"/>
    </g>
    <g text-rendering="geometricPrecision" stroke-miterlimit="1.45" shape-rendering="geometricPrecision" transform="matrix(1,0,0,1,-205,-9)" stroke-linecap="butt">
      <rect x="359.4248" y="158.1463" clip-path="url(#clipPath2)" fill="none" width="30" rx="4" ry="4" height="6.22"/>
    </g>
    <g fill="white" text-rendering="geometricPrecision" shape-rendering="geometricPrecision" transform="matrix(1,0,0,1,-205,-9)" stroke="white">
      <rect x="298.1912" width="37" height="10.7245" y="69.7263" clip-path="url(#clipPath2)" stroke="none"/>
    </g>
    <g font-size="9px" stroke-linecap="butt" transform="matrix(1,0,0,1,-205,-9)" text-rendering="geometricPrecision" font-family="sans-serif" shape-rendering="geometricPrecision" stroke-miterlimit="1.45">
      <text x="299.1768" xml:space="preserve" y="78.624" clip-path="url(#clipPath2)" stroke="none">engineer</text>
    </g>
    <g fill="white" text-rendering="geometricPrecision" shape-rendering="geometricPrecision" transform="matrix(1,0,0,1,-205,-9)" stroke="white">
      <rect x="298.0009" width="37" height="10.7245" y="204.8314" clip-path="url(#clipPath2)" stroke="none"/>
    </g>
    <g font-size="9px" stroke-linecap="butt" transform="matrix(1,0,0,1,-205,-9)" text-rendering="geometricPrecision" font-family="sans-serif" shape-rendering="geometricPrecision" stroke-miterlimit="1.45">
      <text x="298.7404" xml:space="preserve" y="213.7291" clip-path="url(#clipPath2)" stroke="none">manager</text>
      <path fill="none" d="M510.6586 34.5966 L510.6586 49.5966 L445.8386 49.5966" clip-path="url(#clipPath2)"/>
      <path fill="none" d="M238.191 174.4961 L238.191 185.0161 L301.5009 185.0161" clip-path="url(#clipPath2)"/>
      <path fill="none" d="M238.191 34.5966 L238.191 49.5966 L301.6912 49.5966" clip-path="url(#clipPath2)"/>
    </g>
  </g>
</svg>
